HIERARCHY
ROOT Hips
{
	OFFSET	0.00	0.00	0.00
	CHANNELS 6 Xposition Yposition Zposition Zrotation Xrotation Yrotation
	JOINT LeftHip
	{
		OFFSET	 3.430000	 0.000000	 0.000000
		CHANNELS 3 Zrotation Xrotation Yrotation
		JOINT LeftKnee
		{
			OFFSET	 0.000000	-18.469999	 0.000000
			CHANNELS 3 Zrotation Xrotation Yrotation
			JOINT LeftAnkle
			{
				OFFSET	 0.000000	-17.950001	 0.000000
				CHANNELS 3 Zrotation Xrotation Yrotation
				End Site 
				{
					OFFSET	 0.000000	-3.119996	 0.000000
				}
			}
		}
	}
	JOINT RightHip
	{
		OFFSET	-3.430000	 0.000000	 0.000000
		CHANNELS 3 Zrotation Xrotation Yrotation
		JOINT RightKnee
		{
			OFFSET	 0.000000	-18.809999	 0.000000
			CHANNELS 3 Zrotation Xrotation Yrotation
			JOINT RightAnkle
			{
				OFFSET	 0.000000	-17.570000	 0.000000
				CHANNELS 3 Zrotation Xrotation Yrotation
				End Site 
				{
					OFFSET	 0.000000	-3.250000	 0.000000
				}
			}
		}
	}
	JOINT Chest
	{
		OFFSET	 0.000000	 4.570000	 0.000000
		CHANNELS 3 Zrotation Xrotation Yrotation
		JOINT LeftCollar
		{
			OFFSET	 1.060000	 15.330000	 1.760000
			CHANNELS 3 Zrotation Xrotation Yrotation
			JOINT LeftShoulder
			{
				OFFSET	 5.810000	 0.000000	 0.000000
				CHANNELS 3 Zrotation Xrotation Yrotation
				JOINT LeftElbow
				{
					OFFSET	 0.000000	-12.080000	 0.000000
					CHANNELS 3 Zrotation Xrotation Yrotation
					JOINT LeftWrist
					{
						OFFSET	 0.000000	-9.820000	 0.000000
						CHANNELS 3 Zrotation Xrotation Yrotation
						End Site 
						{
							OFFSET	 0.000000	-7.369996	 0.000000
						}
					}
				}
			}
		}
		JOINT RightCollar
		{
			OFFSET	-1.060000	 15.330000	 1.760000
			CHANNELS 3 Zrotation Xrotation Yrotation
			JOINT RightShoulder
			{
				OFFSET	-6.060000	 0.000000	 0.000000
				CHANNELS 3 Zrotation Xrotation Yrotation
				JOINT RightElbow
				{
					OFFSET	 0.000000	-11.900000	 0.000000
					CHANNELS 3 Zrotation Xrotation Yrotation
					JOINT RightWrist
					{
						OFFSET	 0.000000	-9.520000	 0.000000
						CHANNELS 3 Zrotation Xrotation Yrotation
						End Site 
						{
							OFFSET	 0.000000	-7.140012	 0.000000
						}
					}
				}
			}
		}
		JOINT Neck
		{
			OFFSET	 0.000000	 17.620001	 0.000000
			CHANNELS 3 Zrotation Xrotation Yrotation
			JOINT Head
			{
				OFFSET	 0.000000	 5.190000	 0.000000
				CHANNELS 3 Zrotation Xrotation Yrotation
				End Site 
				{
					OFFSET	 0.000000	 4.140008	 0.000000
				}
			}
		}
	}
}

MOTION
Frames: 28
Frame Time: 0.033333
-34.6684 0.3779 -41.1121 15.9216 1.72878 90.6716 1.11707 -4.95243 10.304 11.1167 15.9461 1.95693 -7.16755 6.62497 -4.24087 -1.8343 10.848 -18.2064 -0.663309 9.61873 -1.55202 -4.11919 -10.3001 -5.98093 4.64126 22.2058 2.54648 0 0 0 38.1589 10.8621 -9.84082 -58.0676 -36.664 -43.1679 -14.3892 -46.4192 -57.4903 0 0 0 -34.7869 15.6292 21.5828 40.7511 -43.747 33.5889 -2.16369 -68.4184 62.0779 0 0 0 -6.51287 11.5466 30.1696 
-34.6675 0.3797 -41.1165 15.9334 1.74383 90.658 1.10488 -4.95646 10.3486 11.1263 15.951 1.95677 -7.16912 6.62927 -4.27453 -1.85858 10.8357 -18.1972 -0.680145 9.62617 -1.56616 -4.10114 -10.2848 -5.95726 4.60811 22.2788 2.57158 0 0 0 38.1604 10.8283 -9.82187 -58.0498 -36.6663 -43.1593 -14.4046 -46.411 -57.4797 0 0 0 -34.7927 15.5946 21.637 40.723 -43.7519 33.5716 -2.26655 -68.4467 61.9875 0 0 0 -6.43568 11.4208 29.9785 
-34.667 0.3809 -41.1194 15.9366 1.75767 90.6502 1.09321 -4.96712 10.3775 11.1223 15.9489 1.95716 -7.16318 6.64329 -4.29086 -1.87831 10.8228 -18.1924 -0.686261 9.6305 -1.58149 -4.09308 -10.2744 -5.93622 4.5731 22.3675 2.58425 0 0 0 38.1613 10.7774 -9.77843 -58.0512 -36.6699 -43.1587 -14.4192 -46.3921 -57.466 0 0 0 -34.7911 15.5095 21.6501 40.7071 -43.7455 33.5547 -2.26892 -68.4568 61.9877 0 0 0 -6.34992 11.2233 29.6996 
-34.6665 0.3817 -41.1215 15.9376 1.77014 90.6428 1.07998 -4.97471 10.4019 11.1198 15.9459 1.95963 -7.15621 6.65304 -4.30585 -1.89541 10.8123 -18.1871 -0.690621 9.63365 -1.59256 -4.08705 -10.2654 -5.91897 4.54352 22.4406 2.59297 0 0 0 38.1608 10.7341 -9.73811 -58.0457 -36.669 -43.1528 -14.4331 -46.3842 -57.4548 0 0 0 -34.7891 15.4404 21.6486 40.6951 -43.741 33.5497 -2.26096 -68.4599 61.9921 0 0 0 -6.28821 11.069 29.4981 
-34.6716 0.3867 -41.1291 15.9318 1.80565 90.6231 1.05012 -5.00801 10.4602 11.1152 15.9557 1.96347 -7.14808 6.66638 -4.34211 -1.93758 10.7877 -18.1776 -0.722522 9.63099 -1.60553 -4.05578 -10.2455 -5.88811 4.47953 22.5595 2.61903 0 0 0 38.1579 10.662 -9.68365 -58.0427 -36.6723 -43.147 -14.4512 -46.3672 -57.4289 0 0 0 -34.7971 15.3361 21.6944 40.6695 -43.7345 33.5281 -2.31798 -68.4793 61.9453 0 0 0 -6.19218 10.8242 29.1946 
-34.669 0.3918 -41.1416 15.8716 1.84573 90.5779 1.00735 -5.07821 10.5281 11.1079 15.9477 1.97119 -7.12654 6.68074 -4.3648 -1.99711 10.6981 -18.1481 -0.747888 9.6513 -1.62206 -4.02615 -10.2386 -5.84845 4.39597 22.6183 2.67194 0 0 0 38.1628 10.5944 -9.62967 -58.0433 -36.6759 -43.1419 -14.4698 -46.3516 -57.4111 0 0 0 -34.7932 15.2167 21.692 40.6392 -43.7248 33.5125 -2.3504 -68.4914 61.899 0 0 0 -6.10513 10.5798 28.9138 
-34.6615 0.3968 -41.1542 15.7994 1.8834 90.5257 0.96235 -5.15047 10.5887 11.0915 15.9322 1.98477 -7.10488 6.68407 -4.37167 -2.05712 10.6128 -18.0943 -0.762022 9.65757 -1.6506 -3.99946 -10.2336 -5.81675 4.31229 22.645 2.73293 0 0 0 38.1628 10.5317 -9.58343 -58.0361 -36.6782 -43.1312 -14.4965 -46.3301 -57.3969 0 0 0 -34.7785 15.1198 21.6438 40.6278 -43.7099 33.5241 -2.32174 -68.4903 61.9171 0 0 0 -6.02269 10.3618 28.6545 
-34.6515 0.4018 -41.1692 15.7139 1.91644 90.4687 0.930357 -5.22412 10.646 11.0805 15.9239 1.99769 -7.0929 6.67465 -4.37763 -2.11177 10.5228 -18.0439 -0.773621 9.6678 -1.66434 -3.97606 -10.2397 -5.79104 4.24255 22.6501 2.78765 0 0 0 38.1537 10.473 -9.53672 -58.0208 -36.6772 -43.1188 -14.4935 -46.3224 -57.3634 0 0 0 -34.7449 15.0322 21.5601 40.5959 -43.6837 33.5137 -2.25198 -68.4889 61.9716 0 0 0 -5.97263 10.1737 28.4736 
-34.6415 0.4068 -41.1818 15.6237 1.94778 90.4025 0.892214 -5.29056 10.6924 11.0578 15.9081 2.01687 -7.07388 6.66721 -4.36125 -2.16811 10.4345 -17.9885 -0.783738 9.67306 -1.67167 -3.94624 -10.2485 -5.76874 4.17039 22.6302 2.84511 0 0 0 38.1376 10.4248 -9.49149 -58.0157 -36.6723 -43.1129 -14.4985 -46.3093 -57.3522 0 0 0 -34.7037 14.9699 21.4491 40.5835 -43.6503 33.4923 -2.279 -68.4775 61.9278 0 0 0 -5.95591 10.0275 28.3643 
-34.6314 0.4118 -41.1969 15.54 1.9755 90.3329 0.835103 -5.33568 10.7319 11.0569 15.894 2.03659 -7.05668 6.63423 -4.33538 -2.22538 10.3535 -17.9274 -0.798909 9.68032 -1.67952 -3.91201 -10.2571 -5.74328 4.11059 22.5781 2.90589 0 0 0 38.1215 10.4016 -9.47378 -58.0035 -36.6653 -43.1066 -14.5067 -46.3153 -57.3509 0 0 0 -34.6515 14.9699 21.3256 40.5662 -43.6207 33.482 -2.32858 -68.4712 61.8741 0 0 0 -5.96299 9.97588 28.3814 
-34.6189 0.4169 -41.2119 15.4601 2.00053 90.2656 0.777092 -5.36104 10.7537 11.0551 15.8748 2.04939 -7.04871 6.59025 -4.2894 -2.28229 10.2894 -17.8848 -0.817339 9.68382 -1.67934 -3.86786 -10.2778 -5.71165 4.05031 22.5211 2.96489 0 0 0 38.1098 10.3893 -9.46517 -57.9947 -36.6626 -43.1079 -14.5193 -46.3192 -57.3581 0 0 0 -34.5825 14.9836 21.193 40.5343 -43.5913 33.4454 -2.34824 -68.4701 61.8503 0 0 0 -5.9707 9.92122 28.3939 
-34.6038 0.4194 -41.227 15.3965 2.01675 90.1929 0.721925 -5.34708 10.771 11.0558 15.8539 2.047 -7.0519 6.52404 -4.21706 -2.35255 10.2449 -17.8737 -0.805134 9.69892 -1.67677 -3.82574 -10.3036 -5.64096 3.99748 22.4708 3.0057 0 0 0 38.1031 10.3882 -9.4509 -57.9846 -36.6553 -43.1024 -14.5507 -46.3332 -57.3866 0 0 0 -34.5068 15.0075 21.0711 40.5005 -43.5684 33.4101 -2.32086 -68.4626 61.8756 0 0 0 -5.97559 9.86843 28.4132 
-34.5888 0.4194 -41.237 15.3814 2.01744 90.141 0.662896 -5.28104 10.7372 11.0608 15.8347 2.06052 -7.0504 6.45341 -4.13364 -2.41057 10.2789 -17.9267 -0.807535 9.69438 -1.66508 -3.75812 -10.344 -5.53096 3.97482 22.4621 3.01611 0 0 0 38.0915 10.3819 -9.45111 -57.9736 -36.6591 -43.0859 -14.5936 -46.3351 -57.4294 0 0 0 -34.4365 15.0269 20.9405 40.4751 -43.5298 33.3801 -2.31299 -68.4571 61.8718 0 0 0 -5.98096 9.82383 28.4189 
-34.5737 0.4194 -41.2446 15.3776 2.01161 90.0949 0.611818 -5.20375 10.6937 11.0675 15.8157 2.07582 -7.05242 6.38875 -4.04889 -2.46432 10.33 -18.0014 -0.805525 9.69524 -1.65373 -3.68952 -10.3951 -5.40477 3.95732 22.4613 3.01361 0 0 0 38.0915 10.3799 -9.44373 -57.9724 -36.6581 -43.0717 -14.6389 -46.3362 -57.4743 0 0 0 -34.367 15.0449 20.8341 40.4426 -43.501 33.3411 -2.33397 -68.4527 61.8364 0 0 0 -5.98149 9.78034 28.4301 
-34.5611 0.4219 -41.2521 15.3783 2.00973 90.0491 0.547461 -5.11353 10.6461 11.0817 15.799 2.08198 -7.05752 6.31098 -3.95179 -2.54034 10.4101 -18.1247 -0.799957 9.67694 -1.63345 -3.60481 -10.4446 -5.23182 3.93314 22.4645 2.99225 0 0 0 38.0949 10.368 -9.44194 -57.9581 -36.6607 -43.0579 -14.7062 -46.3401 -57.5268 0 0 0 -34.3157 15.0411 20.77 40.428 -43.483 33.3181 -2.3778 -68.4373 61.7723 0 0 0 -5.979 9.73994 28.459 
-34.5486 0.4219 -41.2621 15.385 2.00518 90.0118 0.485067 -5.02606 10.5907 11.0981 15.7862 2.08715 -7.05814 6.23512 -3.849 -2.60541 10.5073 -18.2656 -0.804462 9.6551 -1.62218 -3.5152 -10.5017 -5.03943 3.92167 22.4695 2.95707 0 0 0 38.1024 10.3568 -9.45279 -57.9414 -36.6803 -43.0494 -14.7771 -46.3488 -57.5618 0 0 0 -34.2793 15.0199 20.7251 40.4089 -43.469 33.318 -2.30976 -68.4146 61.8131 0 0 0 -5.97616 9.70909 28.4896 
-34.531 0.4244 -41.2697 15.3898 1.99887 89.965 0.451894 -4.9413 10.5414 11.0914 15.7684 2.09892 -7.06098 6.17212 -3.7552 -2.67362 10.6122 -18.4172 -0.806304 9.62044 -1.59483 -3.41937 -10.5532 -4.8426 3.90744 22.4712 2.92431 0 0 0 38.1043 10.3162 -9.47759 -57.9089 -36.6938 -43.0209 -14.8296 -46.3331 -57.5888 0 0 0 -34.259 14.9812 20.7182 40.3863 -43.4564 33.3052 -2.26573 -68.3918 61.8116 0 0 0 -5.97339 9.68678 28.5306 
-34.5134 0.4244 -41.2797 15.3896 1.98758 89.9065 0.422378 -4.87867 10.5095 11.0901 15.7604 2.12159 -7.05931 6.1199 -3.67286 -2.73473 10.7046 -18.559 -0.807797 9.58215 -1.57417 -3.32748 -10.5956 -4.63724 3.89038 22.4678 2.9027 0 0 0 38.1088 10.2636 -9.49847 -57.9306 -36.7267 -43.0251 -14.8521 -46.2763 -57.5858 0 0 0 -34.2521 14.9251 20.7312 40.3794 -43.4407 33.3117 -2.25582 -68.3651 61.7705 0 0 0 -5.97174 9.67562 28.5786 
-34.4883 0.4269 -41.2898 15.3906 1.97804 89.8433 0.404476 -4.8268 10.4932 11.0839 15.7492 2.14423 -7.05537 6.08163 -3.60502 -2.78054 10.8 -18.6616 -0.817475 9.53212 -1.56136 -3.25209 -10.6346 -4.46219 3.87202 22.4675 2.8909 0 0 0 38.1131 10.1966 -9.5369 -57.9308 -36.7698 -43.0097 -14.8751 -46.2189 -57.576 0 0 0 -34.2538 14.8485 20.7564 40.3687 -43.4184 33.3179 -2.29547 -68.3305 61.6749 0 0 0 -5.97985 9.66916 28.6404 
-34.4607 0.4294 -41.3024 15.3836 1.96282 89.7631 0.404771 -4.78776 10.506 11.0734 15.7448 2.16912 -7.05211 6.04325 -3.55257 -2.81302 10.8698 -18.7117 -0.811655 9.47688 -1.55412 -3.20357 -10.6516 -4.32435 3.84965 22.4622 2.90713 0 0 0 38.115 10.1163 -9.57371 -57.9208 -36.8139 -42.9901 -14.8822 -46.165 -57.5367 0 0 0 -34.2526 14.7698 20.8036 40.348 -43.411 33.3126 -2.33314 -68.286 61.5865 0 0 0 -5.98372 9.65841 28.6937 
-34.428 0.4344 -41.3149 15.3692 1.94844 89.6703 0.409633 -4.7532 10.5275 11.0636 15.7508 2.17563 -7.05775 5.99061 -3.48013 -2.8608 10.9313 -18.7328 -0.797646 9.4202 -1.55244 -3.15294 -10.6575 -4.18898 3.82554 22.4583 2.92252 0 0 0 38.1117 10.0333 -9.59733 -57.9117 -36.8463 -42.9929 -14.8648 -46.1233 -57.4679 0 0 0 -34.2593 14.665 20.8626 40.335 -43.3911 33.3111 -2.34524 -68.2373 61.5217 0 0 0 -5.98203 9.62239 28.7145 
-34.3954 0.4395 -41.3274 15.3532 1.93428 89.5849 0.425633 -4.7338 10.5427 11.0476 15.7574 2.19191 -7.06376 5.95486 -3.41917 -2.88529 10.966 -18.7081 -0.780697 9.38787 -1.56355 -3.12929 -10.6702 -4.10428 3.80802 22.4529 2.95249 0 0 0 38.1083 9.95848 -9.61938 -57.9132 -36.8751 -42.9909 -14.8351 -46.0798 -57.3967 0 0 0 -34.2676 14.5803 20.9129 40.3208 -43.3754 33.3053 -2.33127 -68.1969 61.4897 0 0 0 -5.97987 9.58771 28.7136 
-34.3577 0.4445 -41.3375 15.339 1.91396 89.4834 0.451741 -4.71218 10.5734 11.0251 15.7732 2.20704 -7.07143 5.90828 -3.36298 -2.90882 11.0055 -18.6695 -0.752447 9.34111 -1.55807 -3.11871 -10.6677 -4.03495 3.77879 22.4511 2.99434 0 0 0 38.1071 9.87134 -9.64371 -57.9077 -36.8921 -42.9607 -14.7854 -46.0347 -57.3182 0 0 0 -34.2681 14.4837 20.9744 40.2955 -43.3518 33.2959 -2.34342 -68.1616 61.4302 0 0 0 -5.95379 9.53151 28.5693 
-34.3226 0.4445 -41.3475 15.3234 1.89524 89.3889 0.472448 -4.70145 10.6065 11.0104 15.8026 2.21921 -7.08064 5.85896 -3.31293 -2.92505 11.0374 -18.6201 -0.725624 9.30531 -1.56044 -3.1163 -10.676 -3.97858 3.74804 22.4521 3.02986 0 0 0 38.1343 9.83146 -9.64801 -57.9451 -36.9248 -42.9723 -14.7485 -46.0061 -57.2386 0 0 0 -34.2686 14.3891 21.0397 40.277 -43.3362 33.2911 -2.3526 -68.124 61.3808 0 0 0 -5.92825 9.4616 28.3238 
-34.2849 0.447 -41.3576 15.3069 1.88063 89.301 0.496512 -4.69871 10.6381 10.981 15.8444 2.21894 -7.07861 5.80058 -3.2576 -2.93971 11.0672 -18.5729 -0.703747 9.27024 -1.55684 -3.11711 -10.6824 -3.93337 3.72044 22.4522 3.05258 0 0 0 38.1663 9.79439 -9.65393 -57.9541 -36.9348 -42.9517 -14.7222 -46.0036 -57.1744 0 0 0 -34.2667 14.3004 21.1134 40.2499 -43.3258 33.2816 -2.3555 -68.0891 61.3486 0 0 0 -5.89893 9.40185 28.0353 
-34.2522 0.4495 -41.3651 15.2819 1.86578 89.2168 0.518643 -4.71184 10.666 10.9638 15.901 2.22206 -7.08719 5.73816 -3.20729 -2.9552 11.0892 -18.5314 -0.689884 9.23353 -1.53783 -3.10643 -10.6872 -3.90056 3.6937 22.4456 3.08069 0 0 0 38.1947 9.76374 -9.64927 -57.9633 -36.9284 -42.9471 -14.6975 -46.0137 -57.1085 0 0 0 -34.2679 14.2245 21.1711 40.235 -43.3123 33.2729 -2.36688 -68.0686 61.311 0 0 0 -5.86519 9.3524 27.7245 
-34.2246 0.4495 -41.3701 15.2623 1.85508 89.147 0.532356 -4.72669 10.6909 10.9647 15.9646 2.21195 -7.10518 5.67332 -3.16019 -2.97309 11.1138 -18.5097 -0.678097 9.20883 -1.51685 -3.09627 -10.6956 -3.86128 3.66693 22.4451 3.08251 0 0 0 38.2207 9.73785 -9.64364 -57.9744 -36.9246 -42.9466 -14.6606 -46.0235 -57.036 0 0 0 -34.2697 14.1496 21.2282 40.2305 -43.2905 33.2694 -2.37994 -68.0584 61.2799 0 0 0 -5.83692 9.30276 27.4048 
-34.202 0.4495 -41.3726 15.2491 1.84588 89.088 0.549512 -4.73601 10.705 10.9577 16.0231 2.20708 -7.11215 5.61751 -3.1204 -2.97156 11.1472 -18.5126 -0.680299 9.17546 -1.48784 -3.08675 -10.7098 -3.82828 3.65017 22.451 3.07983 0 0 0 38.2527 9.7055 -9.66056 -57.9808 -36.9294 -42.923 -14.6357 -46.0322 -56.9794 0 0 0 -34.269 14.0931 21.2661 40.216 -43.2791 33.2628 -2.41278 -68.0572 61.2239 0 0 0 -5.81912 9.28256 27.1057 
